<mxfile host="app.diagrams.net" modified="2023-05-04T01:31:12.946Z" agent="Mozilla/5.0 (Windows NT 10.0; Win64; x64) AppleWebKit/537.36 (KHTML, like Gecko) Chrome/112.0.0.0 Safari/537.36 Edg/112.0.1722.68" etag="x2Yc_eUpW6N79O16W0Rg" version="21.2.3" type="github">
  <diagram name="第 1 页" id="4oM2Mcvue77-jiCLDorl">
    <mxGraphModel dx="1138" dy="606" grid="1" gridSize="10" guides="1" tooltips="1" connect="1" arrows="1" fold="1" page="1" pageScale="1" pageWidth="827" pageHeight="1169" math="0" shadow="0">
      <root>
        <mxCell id="0" />
        <mxCell id="1" parent="0" />
        <mxCell id="fC5iowNk82IsQZgq-YCM-1" value="" style="rounded=0;whiteSpace=wrap;html=1;" vertex="1" parent="1">
          <mxGeometry x="140" y="70" width="620" height="500" as="geometry" />
        </mxCell>
        <mxCell id="fC5iowNk82IsQZgq-YCM-3" value="Redis" style="text;html=1;strokeColor=none;fillColor=none;align=center;verticalAlign=middle;whiteSpace=wrap;rounded=0;" vertex="1" parent="1">
          <mxGeometry x="160" y="70" width="60" height="30" as="geometry" />
        </mxCell>
        <mxCell id="fC5iowNk82IsQZgq-YCM-21" style="edgeStyle=orthogonalEdgeStyle;rounded=0;orthogonalLoop=1;jettySize=auto;html=1;exitX=1;exitY=0.5;exitDx=0;exitDy=0;" edge="1" parent="1" source="fC5iowNk82IsQZgq-YCM-4" target="fC5iowNk82IsQZgq-YCM-9">
          <mxGeometry relative="1" as="geometry" />
        </mxCell>
        <mxCell id="fC5iowNk82IsQZgq-YCM-4" value="gulimall:cart:userId" style="rounded=0;whiteSpace=wrap;html=1;" vertex="1" parent="1">
          <mxGeometry x="220" y="140" width="120" height="60" as="geometry" />
        </mxCell>
        <mxCell id="fC5iowNk82IsQZgq-YCM-8" value="key" style="text;html=1;strokeColor=none;fillColor=none;align=center;verticalAlign=middle;whiteSpace=wrap;rounded=0;" vertex="1" parent="1">
          <mxGeometry x="240" y="110" width="60" height="30" as="geometry" />
        </mxCell>
        <mxCell id="fC5iowNk82IsQZgq-YCM-9" value="" style="rounded=0;whiteSpace=wrap;html=1;" vertex="1" parent="1">
          <mxGeometry x="440" y="90" width="270" height="160" as="geometry" />
        </mxCell>
        <mxCell id="fC5iowNk82IsQZgq-YCM-11" value="cartItem" style="rounded=0;whiteSpace=wrap;html=1;" vertex="1" parent="1">
          <mxGeometry x="580" y="125" width="100" height="40" as="geometry" />
        </mxCell>
        <mxCell id="fC5iowNk82IsQZgq-YCM-17" style="edgeStyle=orthogonalEdgeStyle;rounded=0;orthogonalLoop=1;jettySize=auto;html=1;exitX=1;exitY=0.5;exitDx=0;exitDy=0;" edge="1" parent="1" source="fC5iowNk82IsQZgq-YCM-12" target="fC5iowNk82IsQZgq-YCM-11">
          <mxGeometry relative="1" as="geometry" />
        </mxCell>
        <mxCell id="fC5iowNk82IsQZgq-YCM-12" value="skuId" style="rounded=0;whiteSpace=wrap;html=1;" vertex="1" parent="1">
          <mxGeometry x="470" y="130" width="60" height="30" as="geometry" />
        </mxCell>
        <mxCell id="fC5iowNk82IsQZgq-YCM-14" value="value" style="text;html=1;strokeColor=none;fillColor=none;align=center;verticalAlign=middle;whiteSpace=wrap;rounded=0;" vertex="1" parent="1">
          <mxGeometry x="520" y="90" width="60" height="30" as="geometry" />
        </mxCell>
        <mxCell id="fC5iowNk82IsQZgq-YCM-18" value="cartItem" style="rounded=0;whiteSpace=wrap;html=1;" vertex="1" parent="1">
          <mxGeometry x="580" y="190" width="100" height="40" as="geometry" />
        </mxCell>
        <mxCell id="fC5iowNk82IsQZgq-YCM-19" style="edgeStyle=orthogonalEdgeStyle;rounded=0;orthogonalLoop=1;jettySize=auto;html=1;exitX=1;exitY=0.5;exitDx=0;exitDy=0;" edge="1" parent="1" source="fC5iowNk82IsQZgq-YCM-20" target="fC5iowNk82IsQZgq-YCM-18">
          <mxGeometry relative="1" as="geometry" />
        </mxCell>
        <mxCell id="fC5iowNk82IsQZgq-YCM-20" value="skuId" style="rounded=0;whiteSpace=wrap;html=1;" vertex="1" parent="1">
          <mxGeometry x="470" y="195" width="60" height="30" as="geometry" />
        </mxCell>
        <mxCell id="fC5iowNk82IsQZgq-YCM-22" style="edgeStyle=orthogonalEdgeStyle;rounded=0;orthogonalLoop=1;jettySize=auto;html=1;exitX=1;exitY=0.5;exitDx=0;exitDy=0;" edge="1" parent="1" source="fC5iowNk82IsQZgq-YCM-23" target="fC5iowNk82IsQZgq-YCM-25">
          <mxGeometry relative="1" as="geometry" />
        </mxCell>
        <mxCell id="fC5iowNk82IsQZgq-YCM-23" value="gulimall:cart:userKey" style="rounded=0;whiteSpace=wrap;html=1;" vertex="1" parent="1">
          <mxGeometry x="220" y="380" width="120" height="60" as="geometry" />
        </mxCell>
        <mxCell id="fC5iowNk82IsQZgq-YCM-24" value="key" style="text;html=1;strokeColor=none;fillColor=none;align=center;verticalAlign=middle;whiteSpace=wrap;rounded=0;" vertex="1" parent="1">
          <mxGeometry x="240" y="350" width="60" height="30" as="geometry" />
        </mxCell>
        <mxCell id="fC5iowNk82IsQZgq-YCM-25" value="" style="rounded=0;whiteSpace=wrap;html=1;" vertex="1" parent="1">
          <mxGeometry x="440" y="330" width="270" height="160" as="geometry" />
        </mxCell>
        <mxCell id="fC5iowNk82IsQZgq-YCM-26" value="cartItem" style="rounded=0;whiteSpace=wrap;html=1;" vertex="1" parent="1">
          <mxGeometry x="580" y="365" width="100" height="40" as="geometry" />
        </mxCell>
        <mxCell id="fC5iowNk82IsQZgq-YCM-27" style="edgeStyle=orthogonalEdgeStyle;rounded=0;orthogonalLoop=1;jettySize=auto;html=1;exitX=1;exitY=0.5;exitDx=0;exitDy=0;" edge="1" parent="1" source="fC5iowNk82IsQZgq-YCM-28" target="fC5iowNk82IsQZgq-YCM-26">
          <mxGeometry relative="1" as="geometry" />
        </mxCell>
        <mxCell id="fC5iowNk82IsQZgq-YCM-28" value="skuId" style="rounded=0;whiteSpace=wrap;html=1;" vertex="1" parent="1">
          <mxGeometry x="470" y="370" width="60" height="30" as="geometry" />
        </mxCell>
        <mxCell id="fC5iowNk82IsQZgq-YCM-29" value="value" style="text;html=1;strokeColor=none;fillColor=none;align=center;verticalAlign=middle;whiteSpace=wrap;rounded=0;" vertex="1" parent="1">
          <mxGeometry x="520" y="330" width="60" height="30" as="geometry" />
        </mxCell>
        <mxCell id="fC5iowNk82IsQZgq-YCM-30" value="cartItem" style="rounded=0;whiteSpace=wrap;html=1;" vertex="1" parent="1">
          <mxGeometry x="580" y="430" width="100" height="40" as="geometry" />
        </mxCell>
        <mxCell id="fC5iowNk82IsQZgq-YCM-31" style="edgeStyle=orthogonalEdgeStyle;rounded=0;orthogonalLoop=1;jettySize=auto;html=1;exitX=1;exitY=0.5;exitDx=0;exitDy=0;" edge="1" parent="1" source="fC5iowNk82IsQZgq-YCM-32" target="fC5iowNk82IsQZgq-YCM-30">
          <mxGeometry relative="1" as="geometry" />
        </mxCell>
        <mxCell id="fC5iowNk82IsQZgq-YCM-32" value="skuId" style="rounded=0;whiteSpace=wrap;html=1;" vertex="1" parent="1">
          <mxGeometry x="470" y="435" width="60" height="30" as="geometry" />
        </mxCell>
      </root>
    </mxGraphModel>
  </diagram>
</mxfile>
